<svg width="270" height="294" viewBox="0 0 270 294" fill="none" xmlns="http://www.w3.org/2000/svg">
<g clip-path="url(#clip0_98_240)">
<path d="M242.927 36.5591C234.399 30.2342 227.647 29.8964 218.28 26.9586C207.811 23.6768 197.845 15.6592 190.763 7.49463C182.977 -1.48122 177.525 -12.3156 169.515 -21.0906C153.281 -38.8729 128.787 -46.0718 105.583 -52.5004C120.356 -39.3856 140.86 -23.6899 146.314 -3.99837C153.005 20.1573 177.202 32.3857 199.055 39.6792C220.625 46.8775 225.643 74.6398 246.865 81.3895C248.742 81.9861 250.784 82.3458 252.672 81.7888C254.539 81.2387 256.051 79.8477 257.226 78.2968C261.414 72.769 261.85 65.0018 259.53 58.4668C256.054 48.6756 250.125 41.898 242.927 36.5591Z" fill="#528C4D"/>
<path d="M121.247 -39.84C121.52 -40.0322 121.894 -40.061 122.204 -39.8833C132.993 -33.7019 144.148 -27.3085 153.139 -18.2828C158.392 -13.0119 162.838 -6.87736 167.139 -0.946041C172.579 6.55747 178.206 14.3163 185.432 20.2218C192.225 25.7727 200.385 29.6417 208.276 33.3852C216.368 37.2221 224.736 41.1914 231.752 47.0016C237.217 51.5293 242.107 57.3318 246.705 64.7431C246.964 65.1601 246.843 65.7297 246.416 65.9698C245.998 66.2296 245.449 66.0999 245.19 65.6816C240.697 58.4379 235.931 52.7774 230.616 48.3761C223.772 42.7066 215.506 38.7871 207.514 34.9963C199.526 31.2083 191.268 27.2922 184.306 21.6022C176.901 15.5516 171.206 7.69768 165.698 0.100273C161.438 -5.77481 157.033 -11.849 151.879 -17.0239C143.056 -25.8795 132.007 -32.2129 121.32 -38.3351C120.892 -38.579 120.745 -39.1237 120.989 -39.5513C121.055 -39.672 121.144 -39.7674 121.247 -39.84Z" fill="#95BC8F"/>
<path d="M175.28 145.768C167.235 138.334 161.617 126.893 157.035 118.397C148.152 101.924 141.436 83.9899 140.215 65.176C139.378 52.2991 141.109 39.3469 140.106 26.4836C137.375 -8.54128 114.91 -38.8339 90.3167 -63.9201C93.8188 -60.3482 101.704 -58.1056 106.127 -55.5044C111.67 -52.2443 117.066 -48.7297 122.291 -44.9793C131.166 -38.6066 139.708 -32.1415 148.689 -26.0628C167.17 -13.5525 177.416 16.6689 180.188 37.699C182.859 57.9719 183.979 77.251 194.185 95.6114C198.036 102.54 202.728 109.008 206.064 116.198C209.401 123.388 211.322 131.628 209.219 139.27C207.116 146.913 200.135 153.55 192.212 153.31C185.547 153.107 179.998 150.126 175.28 145.768Z" fill="#95BC8F"/>
<path d="M110.637 -5.27568C113.253 -15.6915 110.394 -22.8096 107.656 -32.8232C105.444 -40.9105 102.476 -55.7126 96.4659 -61.8509C115.441 -42.4689 132.558 -15.3896 130.648 12.5629C129.993 22.1625 127.58 31.5509 126.363 41.0965C124.362 56.8124 125.655 72.941 130.134 88.1383C131.187 91.7134 132.428 95.318 132.369 99.0437C132.31 102.769 130.639 106.737 127.289 108.368C124.488 109.729 121.124 109.209 118.206 108.124C104.389 102.991 97.5815 87.2962 95.4564 72.7112C93.2089 57.2862 94.527 41.3522 99.2789 26.5053C102.71 15.7848 107.895 5.6414 110.637 -5.27568Z" fill="#95BC8F"/>
<path d="M97.4133 -58.0107C97.6769 -58.1961 98.0316 -58.2313 98.3376 -58.0725C106.516 -53.8282 113.033 -47.9705 118.859 -42.2726C121.549 -39.6404 124.493 -37.1558 127.339 -34.7525C130.732 -31.8881 134.238 -28.9273 137.406 -25.6524C150.419 -12.1968 158.675 2.77241 161.279 17.6326C162.36 23.7974 162.154 30.0174 161.954 36.0358C161.786 41.091 161.613 46.318 162.221 51.3974C163.373 61.0036 166.63 71.1085 171.638 80.6207C173.062 83.3266 174.601 86.0429 176.087 88.669C179.169 94.1108 182.355 99.7371 184.754 105.654C189.586 117.57 193.848 130.465 192.326 144.02C192.271 144.509 191.83 144.861 191.342 144.807C190.852 144.752 190.501 144.311 190.556 143.822C192.033 130.659 187.846 118.021 183.102 106.323C180.748 100.517 177.59 94.9414 174.535 89.5479C173.042 86.9109 171.498 84.182 170.059 81.4521C164.952 71.75 161.629 61.4321 160.45 51.6123C159.824 46.3987 159.999 41.1007 160.169 35.9787C160.365 30.0523 160.571 23.925 159.521 17.9436C156.976 3.43379 148.885 -11.2125 136.12 -24.4117C133.015 -27.6224 129.542 -30.5539 126.185 -33.3886C123.315 -35.8112 120.346 -38.3181 117.608 -40.997C111.881 -46.5988 105.483 -52.3516 97.512 -56.4895C97.0761 -56.7167 96.9053 -57.2538 97.1317 -57.6909C97.205 -57.8241 97.3003 -57.9312 97.4133 -58.0107Z" fill="#528C4D"/>
<path d="M98.1843 -58.4659C98.5293 -58.7085 99.008 -58.6785 99.3193 -58.3728C111.657 -46.2905 119.304 -31.5606 120.85 -16.8919C122.246 -3.65649 118.827 9.45175 115.521 22.1286C113.585 29.5567 111.582 37.2375 110.566 44.8642C108.232 62.4025 111.131 81.1151 118.727 97.5565C118.933 98.0038 118.734 98.5373 118.291 98.7384C117.845 98.9453 117.315 98.7517 117.109 98.3045C109.372 81.5592 106.421 62.4985 108.799 44.6291C109.83 36.894 111.846 29.159 113.797 21.6802C117.062 9.15723 120.439 -3.79089 119.077 -16.7049C117.574 -30.961 110.115 -45.3075 98.073 -57.0985C97.7216 -57.4432 97.7154 -58.0071 98.0601 -58.3585C98.0982 -58.3999 98.1406 -58.4351 98.1843 -58.4659Z" fill="#528C4D"/>
<path d="M72.0786 158.921C80.4406 148.788 60.129 131.009 54.3257 124.015C49.3848 118.057 44.0654 112.409 38.4042 107.129C37.1503 105.952 24.21 95.2654 21.5339 93.1861C21.237 92.9431 21.0583 92.8254 21.0433 92.8269C20.8633 93.1481 20.6833 93.4694 20.4874 93.7908C10.4481 111.694 -0.642231 128.931 -11.0978 146.467C-13.3025 150.171 -16.2439 154.84 -15.9015 159.334C-15.5364 164.053 -12.8737 168.876 -7.64374 166.354C-4.48038 164.827 -1.96951 162.214 0.471866 159.668C0.68013 161.753 -3.29918 166.935 -4.30295 168.868C-6.11748 172.38 -8.2089 175.861 -9.80101 179.472C-12.3524 185.315 -15.7859 190.821 -18.2795 196.78C-20.5786 202.266 -24.437 216.25 -17.004 219.703C-12.4949 221.796 -7.15522 216.569 -3.91437 213.988C1.47014 209.679 5.64953 204.067 9.73568 198.57C5.86615 206.226 1.9873 213.942 -0.588139 222.121C-3.17719 230.316 -4.42319 239.072 -2.89732 247.521C-2.17835 251.539 -0.0864421 256.099 3.95258 256.666C7.40875 257.153 10.4223 254.414 12.6197 251.711C18.9042 243.965 23.2281 234.659 25.0986 224.871C22.5145 242.969 19.9954 261.878 25.9487 279.169C26.6739 281.278 27.5665 283.384 29.0785 285.036C30.5902 286.672 32.8639 287.763 35.0492 287.347C38.5867 286.675 40.3395 282.699 41.2025 279.206C45.3716 262.57 42.3778 246.241 41.5982 229.493C44.4453 237.069 48.1965 244.312 52.7576 251.003C56.6105 256.675 61.5611 262.269 68.2626 263.72C69.0829 263.896 69.9878 264.002 70.7378 263.625C71.8904 263.04 72.2613 261.594 72.4217 260.321C73.5191 251.745 70.7977 243.157 67.5743 235.135C63.8826 225.917 59.4777 216.999 54.3862 208.48C57.2858 213.25 60.1162 217.63 64.9664 221.462C68.8121 224.485 75.8861 229.655 80.143 224.671C81.2821 223.346 81.793 221.629 81.8745 219.713C82.1101 213.738 78.2444 205.809 76.5321 201.558C73.0976 192.95 68.5634 184.847 63.9175 176.845C61.5035 172.695 59.0485 168.579 56.6632 164.411C54.7565 161.087 53.097 155.847 50.5052 153.092C53.4187 156.178 56.4466 159.358 60.3778 160.966C64.2971 162.592 69.3937 162.204 72.0786 158.921Z" fill="#264F21"/>
<path d="M28.3244 152.222C28.2542 152.123 28.1564 152.058 28.0454 152.008C27.0511 139.326 25.9788 126.303 24.3468 113.457C35.6928 126.681 47.976 139.28 60.9217 150.92C61.1541 151.124 61.5008 151.105 61.7194 150.871C61.923 150.639 61.904 150.292 61.6701 150.073C48.3431 138.093 35.701 125.09 24.0846 111.424C23.2959 105.355 22.4453 99.2602 21.5368 93.1876C21.2399 92.9446 21.0612 92.827 21.0461 92.8284C20.8661 93.1497 20.6862 93.4709 20.4903 93.7924C21.3491 99.5074 22.1333 105.243 22.8862 110.955C22.8152 111.007 22.7616 111.074 22.7398 111.151C16.5764 127.532 6.71604 142.676 -5.76559 154.934C-6.00072 155.154 -5.99531 155.517 -5.77651 155.737C-5.5577 155.957 -5.20823 155.968 -4.97311 155.748C7.21713 143.763 16.9243 129.058 23.1646 113.138C24.8906 126.626 26.0007 140.327 27.0424 153.64C25.0279 162.732 19.2472 170.668 12.9902 178.669C6.23422 187.293 -0.509692 195.586 -8.72061 202.387C-8.95859 202.577 -8.98326 202.943 -8.79229 203.182C-8.5871 203.419 -8.23621 203.445 -7.99702 203.254C0.297619 196.383 7.08054 188.028 13.878 179.368C19.5191 172.171 24.7555 165 27.3009 156.977C27.787 163.062 28.2843 169.252 28.8446 175.465C24.1476 198.939 16.1586 221.604 5.09062 242.853C4.95147 243.124 5.05992 243.461 5.33176 243.6C5.62006 243.753 5.95687 243.645 6.09602 243.373C16.6419 223.117 24.3947 201.565 29.1929 179.263C29.5108 182.593 29.8422 185.907 30.2017 189.217C32.8063 212.719 35.1604 240.53 32.8355 268.658C32.8051 268.964 33.0447 269.243 33.3504 269.273C33.6547 269.289 33.935 269.064 33.9654 268.759C36.2941 240.525 33.9343 212.653 31.324 189.091C31.0432 186.59 30.7938 184.085 30.5417 181.566C34.8313 195.857 46.9527 232.462 63.3085 249.745C63.5122 249.966 63.8767 249.976 64.0982 249.772C64.3334 249.552 64.343 249.187 64.1242 248.967C44.2642 227.977 30.6352 177.954 29.9829 175.521C29.3615 168.692 28.8168 161.871 28.2986 155.169C28.2645 154.824 28.2443 154.478 28.2088 154.118C40.103 172.375 52.4854 191.113 69.8111 205.071C70.0586 205.274 70.4188 205.238 70.6059 204.992C70.8081 204.745 70.7575 204.386 70.5266 204.197C52.9373 190.016 40.4185 170.807 28.3244 152.222Z" fill="#95BC8F"/>
<path d="M23.5811 -5.66364C0.650264 2.58659 -22.1039 11.3066 -46.2192 10.7698C-37.3141 25.1549 -37.9839 43.9042 -36.0881 60.2578C-34.1485 76.989 -31.6677 93.8133 -25.7954 109.683C-22.2696 119.214 -16.1565 129.394 -6.1323 131.074C-0.707628 131.983 5.11944 129.952 8.80454 125.87C12.4908 121.788 13.9152 115.783 12.4584 110.481C16.6161 119.389 20.0023 129.246 26.1837 136.948C27.4678 138.548 28.9512 140.161 30.9322 140.692C33.7987 141.461 36.8537 139.636 38.455 137.135C40.0551 134.635 40.5299 131.601 40.9686 128.664C42.0744 141.638 46.4577 155.072 56.4665 163.401C64.057 169.716 78.4653 173.362 87.1574 166.971C96.6869 159.963 99.0828 146.618 96.7935 135.681C108.931 150.689 127.746 160.087 147.037 160.773C154.508 161.038 163.063 159.426 166.955 153.041C170.645 146.989 168.626 139.1 165.517 132.73C157.905 117.129 144.168 104.62 127.924 98.4996C134.952 99.5252 152.169 97.1457 149.618 86.9163C148.81 83.6755 146.478 81.0321 143.96 78.8366C131.619 68.0811 114.338 65.5749 98.0975 63.5185C101.577 63.2939 105.202 63.0265 108.211 61.263C111.22 59.4994 113.374 55.7499 112.156 52.4817C111.459 50.6105 109.838 49.2593 108.231 48.0731C97.7671 40.3389 85.0085 35.7507 72.0148 35.0488C78.7221 35.4119 97.4517 32.3403 91.0727 22.5358C85.6316 14.1722 70.5612 9.749 61.3277 9.37592C64.9099 7.81495 68.5889 6.18749 71.3171 3.38805C82.4408 -8.03125 65.6099 -14.1209 56.2529 -14.6193C45.3233 -15.2039 33.6305 -9.2801 23.5811 -5.66364Z" fill="#528C4D"/>
<path d="M130.774 82.1503C106.89 85.5324 82.5149 84.96 58.8249 80.3992C54.3915 79.5463 49.9919 78.5403 45.6219 77.4142C57.0466 84.7061 68.6232 91.7654 80.283 98.6608C91.6318 105.373 103.068 111.934 114.533 118.445C114.745 118.248 115.042 118.134 115.429 118.184C127.363 119.715 139.053 122.781 150.187 127.342C151.656 127.944 150.883 130.297 149.406 129.692C139.788 125.752 129.759 122.919 119.507 121.27C123.244 123.386 126.983 125.499 130.724 127.607C132.116 128.391 130.748 130.457 129.367 129.677C117.876 123.198 106.39 116.7 94.9648 110.099C106.2 122.38 118.78 133.362 132.495 142.829C133.805 143.734 132.449 145.807 131.136 144.9C115.193 133.897 100.73 120.858 88.1447 106.131C76.4054 99.2887 64.7444 92.3139 53.2165 85.1232C57.2606 93.4723 60.9204 101.998 64.1942 110.67C68.6835 117.616 74.5693 123.568 81.4553 128.153C82.7837 129.037 81.4248 131.108 80.0964 130.224C75.2217 126.978 70.8647 123.076 67.0901 118.653C70.9695 129.85 74.2184 141.265 76.7918 152.845C77.1373 154.4 74.7077 154.876 74.3605 153.318C71.2151 139.163 67.0485 125.266 61.9431 111.719C61.7933 111.485 61.6302 111.261 61.4832 111.023C61.2772 110.695 61.259 110.383 61.3559 110.117C58.8694 103.629 56.14 97.2332 53.215 90.9234C54.9778 103.27 53.2907 115.941 51.5652 128.245C51.3442 129.816 48.8722 129.667 49.0939 128.087C51.1726 113.261 53.2435 97.9261 49.0758 83.2628C48.9983 82.9866 49.0343 82.759 49.1149 82.5576C45.8632 80.5086 42.6198 78.4485 39.3924 76.3597C20.8479 64.3605 2.72563 51.6458 -14.583 37.9147C-12.0137 43.9168 -9.9927 50.0978 -8.36135 56.3932C-3.13347 68.0138 3.88489 78.6897 12.4901 88.0905C13.5668 89.2669 11.7073 90.9019 10.6306 89.7255C4.15693 82.6532 -1.44675 74.841 -6.08023 66.4712C-3.62437 79.0073 -2.3853 91.8431 -1.29378 104.49C-1.15895 106.06 -3.58668 106.554 -3.72504 104.963C-4.73375 93.2744 -5.85275 81.4119 -7.95991 69.7776C-10.3663 78.9386 -13.4605 87.9043 -17.3063 96.569C-17.9488 98.0161 -20.3031 97.2453 -19.6568 95.7883C-15.1365 85.6065 -11.5911 75.024 -9.06628 64.1739C-9.06477 64.1658 -9.05995 64.1624 -9.05761 64.1555C-11.2288 53.929 -14.292 43.936 -18.8687 34.4588C-26.8665 27.9828 -34.7002 21.305 -42.2822 14.3351C-56.6187 1.1571 -70.0814 -12.9628 -82.359 -28.0819C-83.3608 -29.3151 -81.5063 -30.9572 -80.4995 -29.7168C-61.7253 -6.5976 -40.1872 14.0697 -17.0647 32.7818C-17.0545 32.789 -17.043 32.7954 -17.0335 32.8014C-11.8205 36.3451 -5.53404 38.0139 0.520926 39.4909C6.86877 41.0392 13.2676 42.3584 19.7153 43.4143C20.2931 43.509 20.8754 43.5738 21.4539 43.6644C22.0874 42.8679 22.2154 41.7865 22.6013 40.868C22.99 39.9458 23.4938 39.0746 23.921 38.1722C24.9211 36.061 25.8822 33.932 26.8217 31.7947C28.7317 27.4437 30.5214 23.0418 32.2022 18.5953C32.765 17.1049 35.117 17.8826 34.5526 19.3759C32.7591 24.1223 30.8384 28.8208 28.7821 33.4593C27.8029 35.6683 26.8239 37.8879 25.7447 40.0499C25.3751 40.7898 25.0879 41.5799 24.7877 42.3612C34.784 37.0523 41.7411 27.5384 50.582 20.6353C51.8326 19.6589 53.4764 21.5105 52.2169 22.4948C43.3107 29.448 36.2847 38.9186 26.2849 44.3599C36.9489 45.8177 47.7026 46.6335 58.4658 46.7217C66.0511 46.7845 73.6349 46.4976 81.1945 45.8748C82.765 45.7453 83.2597 48.1742 81.6689 48.3052C54.8569 50.5125 27.8404 48.4943 1.65928 42.3022C-1.71488 41.5036 -5.16521 40.6718 -8.50784 39.5612C-7.69139 40.1953 -6.87812 40.835 -6.0585 41.4633C8.56658 52.6893 23.7151 63.1998 39.1695 73.2456C39.359 73.2026 39.5625 73.1929 39.7897 73.2594C46.4086 75.1842 53.1239 76.749 59.8894 78.0318C60.0469 77.8773 60.2451 77.7537 60.5345 77.7188C65.8116 77.0806 70.2944 74.189 74.6449 71.333C79.8431 67.9198 85.0375 64.4985 90.2332 61.0816C91.5593 60.21 92.6331 62.4425 91.3162 63.3095C85.9656 66.8274 80.6225 70.3562 75.2664 73.8636C72.1782 75.8847 68.9886 77.8437 65.5234 79.059C80.1869 81.438 95.0899 82.3119 109.948 81.6373C116.758 81.3281 123.548 80.671 130.299 79.7153C131.873 79.4978 132.358 81.9261 130.774 82.1503Z" fill="#295021"/>
</g>
<defs>
<clipPath id="clip0_98_240">
<rect width="270" height="294" fill="white"/>
</clipPath>
</defs>
</svg>
