<svg width="180" height="291" viewBox="0 0 180 291" fill="none" xmlns="http://www.w3.org/2000/svg">
<path d="M195.737 163.351C196.821 170.417 198.271 178.856 197.383 186.015C196.553 192.712 190.174 194.047 184.643 195.306C181.904 195.929 175.373 198.046 173.708 200.638C171.897 203.46 175.992 205.184 178.667 205.24C180.196 205.272 190.295 204.944 190.73 203.184C186.486 220.327 178.512 236.42 167.693 250.314C163.347 255.895 159.278 255.172 153.759 252.306C147.33 248.97 141.179 245.319 135.833 240.38C128.914 233.989 122.493 227.05 116.704 219.618C113.221 215.148 86.3599 173.819 93.8292 171.317C95.2393 170.844 96.7546 171.466 98.1289 172.032C101.144 173.271 104.254 174.28 107.421 175.052C108.478 175.311 109.582 175.541 110.645 175.307C111.707 175.072 112.714 174.244 112.809 173.162C112.885 172.284 112.369 171.468 111.797 170.798C107.322 165.567 98.6989 164.954 95.0705 159.103C93.8292 157.103 93.3566 154.73 93.0428 152.398C91.8651 143.682 92.5879 134.832 93.3108 126.066C93.6961 121.395 94.0814 116.722 94.4687 112.051C94.5144 111.49 94.564 110.917 94.7964 110.404C95.4418 108.98 97.3365 108.498 98.8379 108.935C100.339 109.371 101.533 110.486 102.667 111.562C105.851 114.587 109.036 117.613 112.22 120.638C113.207 121.577 114.253 122.549 115.566 122.908C116.881 123.268 118.535 122.781 119.016 121.506C119.318 120.706 119.101 119.808 118.813 119.004C114.915 108.094 102.661 101.078 104.905 88.2324C105.845 82.8543 108.972 78.1296 112.319 73.814C115.052 70.2909 117.981 66.9226 121.037 63.6755C123.061 61.5246 126.41 56.5477 129.553 56.0433C132.654 55.5448 135.545 59.4711 137.491 61.332C147.93 71.3137 158.164 81.4303 166.269 93.4993C166.723 94.1765 167.19 94.9173 167.158 95.7335C167.125 96.6233 166.509 97.37 165.925 98.0413C162.253 102.268 158.819 107.02 154.351 110.358C152.788 111.526 151.326 112.293 150.939 114.495C150.43 117.387 152.15 118.275 154.496 116.561C159.316 113.044 163.943 107.727 169.335 105.207C170.048 104.873 170.856 104.603 171.611 104.822C172.586 105.104 173.16 106.087 173.625 106.99C176.931 113.403 179.865 120.01 182.399 126.767C182.818 127.883 183.231 129.102 182.886 130.244C182.445 131.702 180.947 132.52 179.621 133.271C173.668 136.633 167.639 141.312 163.52 146.796C162.497 148.158 161.552 149.763 161.76 151.455C161.834 152.053 162.066 152.648 162.509 153.056C163.365 153.842 164.704 153.713 165.826 153.407C171.357 151.902 175.551 147.546 180.145 144.119C181.191 143.338 182.371 142.567 183.676 142.611C186.518 142.706 189.421 147.272 190.71 149.507C193.147 153.735 194.994 158.517 195.737 163.351Z" fill="#528C4D"/>
<path d="M144.19 92.6412C140.479 98.3867 136.584 104.007 132.572 109.546C132.175 98.5854 132.09 87.6147 132.241 76.646C132.262 75.0651 129.818 75.3193 129.796 76.8843C129.637 88.2581 129.748 99.6439 130.187 111.016C127.47 109.193 125.397 106.269 123.306 103.87C120.426 100.565 117.546 97.2607 114.666 93.956C113.636 92.7743 111.636 94.2023 112.676 95.3958C115.783 98.9607 118.889 102.524 121.993 106.088C124.465 108.925 126.878 112.199 130.308 113.925C130.854 126.405 131.835 138.863 133.375 151.262C126.491 145.105 120.07 138.464 114.2 131.329C113.201 130.113 111.203 131.545 112.21 132.768C118.744 140.712 125.925 148.104 133.684 154.857C133.734 154.898 133.794 154.904 133.845 154.936C133.986 155.999 134.105 157.065 134.256 158.126C135.343 165.814 136.667 173.476 138.234 181.088C138.068 181.316 137.903 181.547 137.736 181.775C130.725 176.977 123.715 172.179 116.704 167.381C115.409 166.495 113.858 168.401 115.167 169.297C122.531 174.337 129.895 179.378 137.261 184.42C137.764 184.764 138.473 184.776 138.906 184.299C140.917 193.627 143.319 202.872 146.147 211.98C145.479 211.583 144.707 211.033 144.472 210.9C142.911 210.018 141.358 209.12 139.815 208.209C136.157 206.05 132.55 203.804 128.993 201.48C122.344 197.137 115.888 192.509 109.618 187.638C108.373 186.671 106.83 188.581 108.081 189.554C118.684 197.794 129.842 205.303 141.48 212.004C142.921 212.834 144.359 213.68 145.829 214.459C146.252 214.683 146.667 214.876 147.09 214.953C149.082 221.144 151.274 227.268 153.685 233.31C153.624 233.3 153.568 233.296 153.505 233.282C152.518 233.069 151.505 232.519 150.56 232.16C148.595 231.411 146.633 230.664 144.669 229.916C140.496 228.325 136.326 226.736 132.153 225.145C130.682 224.585 129.679 226.827 131.16 227.394C135.946 229.217 140.731 231.042 145.517 232.865C147.847 233.753 150.162 234.694 152.512 235.53C153.29 235.808 154.039 235.995 154.768 235.973C154.962 236.444 155.147 236.916 155.344 237.385C161.276 251.575 168.439 265.245 176.884 278.102C177.752 279.425 179.742 277.981 178.874 276.662C170.239 263.513 163.014 249.522 157.036 235.002C158.472 233.78 159.624 231.983 160.744 230.51C162.104 228.718 163.405 226.883 164.642 225.006C167.178 221.161 169.448 217.152 171.466 213.011C172.159 211.589 169.911 210.596 169.218 212.018C165.739 219.16 161.471 225.908 156.406 232.035C156.273 232.198 156.142 232.341 156.013 232.476C153.564 226.353 151.338 220.141 149.318 213.861C149.666 213.349 149.922 212.753 150.182 212.216C150.979 210.564 151.769 208.91 152.549 207.251C155.507 200.972 158.347 194.636 161.071 188.251C164.154 181.022 167.081 173.73 169.865 166.38C170.424 164.908 168.179 163.903 167.617 165.387C161.864 180.575 155.477 195.52 148.446 210.161C148.395 210.266 148.339 210.409 148.278 210.564C147.414 207.764 146.582 204.952 145.797 202.128C143.918 195.357 142.282 188.527 140.848 181.656C146.719 173.44 151.84 164.713 156.134 155.568C156.805 154.136 154.559 153.143 153.886 154.575C149.991 162.87 145.41 170.802 140.193 178.321C138.546 170.036 137.176 161.697 136.087 153.318C140.548 144.154 144.002 134.542 146.405 124.636C146.778 123.097 144.349 122.717 143.98 124.246C141.94 132.655 139.1 140.84 135.537 148.714C134.495 139.906 133.702 131.068 133.17 122.221C132.995 119.323 132.868 116.426 132.743 113.526C137.392 107.211 141.853 100.76 146.109 94.1744C146.955 92.8656 145.05 91.3106 144.19 92.6412Z" fill="#264F21"/>
<path d="M164.516 267.403C182.825 272.65 173.143 310.565 171.948 323.682C170.933 334.858 169.211 345.971 166.778 356.926C166.246 359.361 159.553 382.752 158.061 387.433C157.906 387.967 157.789 388.255 157.771 388.265C157.293 388.029 156.814 387.795 156.318 387.568C129.628 374.413 102.231 362.918 75.3463 350.541C69.6723 347.926 62.3261 344.758 59.0472 339.106C55.6114 333.168 54.8349 325.22 63.1543 323.941C68.1888 323.17 73.3326 324.233 78.3393 325.271C76.8776 322.61 67.8671 319.683 65.0827 318.197C60.0303 315.488 54.676 313.046 49.8103 310.037C41.9676 305.149 33.3444 301.384 25.4738 296.311C18.2249 291.644 2.13833 278.1 8.18571 267.874C11.8558 261.672 22.5266 263.536 28.5164 263.961C38.4881 264.69 48.0865 267.967 57.4802 271.183C46.5731 265.211 35.6064 259.171 25.8174 251.513C15.9986 243.845 7.32374 234.404 2.21376 223.056C-0.223069 217.666 -1.46826 210.498 2.89499 206.506C6.6247 203.087 12.4735 203.889 17.3193 205.315C31.1836 209.414 43.9913 216.985 54.257 227.147C36.3174 207.64 17.79 187.111 10.7119 161.565C9.848 158.451 9.18663 155.202 9.63745 151.987C10.1002 148.791 11.9233 145.622 14.8745 144.325C19.6528 142.223 25.0111 145.536 28.9076 149.004C47.5423 165.462 57.3651 187.431 70.1768 208.083C67.3606 196.696 65.901 184.96 65.8592 173.221C65.8076 163.281 67.1342 152.533 73.9522 145.3C74.7883 144.416 75.7813 143.548 76.9868 143.383C78.8437 143.135 80.4742 144.559 81.7095 145.949C90.0587 155.295 93.8539 167.791 96.5847 180.023C99.7384 194.068 101.794 208.339 102.7 222.696C102.251 214.619 102.038 207.06 104.69 198.501C106.805 191.733 111.015 179.749 120.192 182.212C122.641 182.861 124.661 184.494 126.331 186.716C131.516 193.663 133.403 206.31 134.847 212.794C137.806 225.898 139.037 239.303 140.052 252.677C140.575 259.618 141.018 266.551 141.589 273.49C142.038 279.027 144.356 286.65 143.518 292.069C144.467 285.99 145.474 279.704 148.854 274.559C152.207 269.403 158.614 265.685 164.516 267.403Z" fill="#264F21"/>
<path d="M117.73 311.318C117.728 311.494 117.664 311.653 117.573 311.802C126.792 327.774 136.197 344.216 144.789 360.906C147.496 335.793 151.833 310.656 157.75 286.123C157.859 285.688 158.29 285.428 158.743 285.527C159.178 285.637 159.438 286.068 159.338 286.52C153.245 311.774 148.811 337.688 146.141 363.552C150.181 371.452 154.165 379.432 158.061 387.435C157.906 387.969 157.789 388.257 157.771 388.267C157.293 388.031 156.814 387.797 156.318 387.57C152.653 380.037 148.884 372.538 145.097 365.097C144.97 365.093 144.851 365.057 144.759 364.983C123.952 350.466 99.7404 340.462 74.7664 336.057C74.3037 335.988 74.0138 335.549 74.0932 335.106C74.1746 334.663 74.5837 334.363 75.0445 334.433C99.4465 338.75 123.116 348.357 143.635 362.259C134.629 344.724 124.712 327.442 115.033 310.678C105.164 301.469 91.7447 296.727 77.6997 292.302C62.5485 287.539 47.6853 283.166 32.2918 281.776C31.8509 281.744 31.5212 281.327 31.553 280.884C31.6046 280.433 32.0018 280.114 32.4427 280.145C47.9931 281.549 62.9557 285.968 78.1864 290.737C90.8332 294.707 102.976 298.981 112.602 306.478C108.189 298.808 103.704 291.003 99.2737 283.118C74.397 258.923 46.2494 238.394 15.5855 222.089C15.1963 221.878 15.0493 221.385 15.2598 220.996C15.4783 220.577 15.9708 220.43 16.3601 220.641C45.5861 236.191 72.5362 255.584 96.5728 278.296C94.2193 274.056 91.8957 269.824 89.6098 265.572C73.4358 235.351 53.4248 200.185 27.5631 168.48C27.2751 168.139 27.3347 167.608 27.6743 167.323C28.0258 167.054 28.5462 167.094 28.8322 167.434C54.7853 199.261 74.8399 234.505 91.0556 264.802C92.7735 268.021 94.5291 271.218 96.2967 274.434C89.6952 253.835 74.1389 200.147 79.5011 166.073C79.5626 165.64 79.9896 165.331 80.4225 165.392C80.8853 165.462 81.1951 165.891 81.1137 166.334C74.6076 207.714 99.373 278.676 100.59 282.117C105.452 290.788 110.397 299.386 115.279 307.82C115.521 308.261 115.781 308.69 116.034 309.151C115.265 277.573 114.683 245.021 123.932 214.121C124.061 213.676 124.52 213.424 124.947 213.563C125.392 213.692 125.624 214.162 125.505 214.577C116.125 245.954 116.929 279.182 117.73 311.318Z" fill="#95BC8F"/>
<path d="M198.571 15.1654C197.384 16.9812 197.637 19.3093 199.022 20.8587C196.217 23.605 192.49 25.3908 189.37 26.5017C187.415 27.1959 185.368 27.7849 183.386 28.3545C180.413 29.21 177.367 30.1111 174.473 31.3862C174.982 30.6437 175.48 29.8899 175.997 29.1524C178.022 26.2516 180.121 23.2586 181.738 20.0158C183.61 16.2523 184.543 12.4977 184.536 9.035C185.678 8.77721 186.725 8.09955 187.416 7.04331C188.831 4.87648 188.22 1.96441 186.051 0.539003C183.881 -0.885163 180.973 -0.284138 179.557 1.88113C178.142 4.04796 178.754 6.96007 180.923 8.38548C181.537 8.78749 182.21 9.01205 182.893 9.10172C182.886 12.2867 182.01 15.7661 180.263 19.276C179.191 21.4319 177.878 23.4913 176.516 25.4957C174.129 21.2449 173.354 16.2371 172.903 11.4926C173.346 11.1687 173.747 10.7736 174.063 10.2882C175.478 8.12137 174.867 5.20926 172.698 3.78385C170.528 2.35968 167.62 2.9607 166.204 5.12597C164.789 7.2928 165.401 10.2049 167.57 11.6303C168.725 12.3907 170.086 12.5582 171.324 12.2362C171.822 17.2355 172.708 22.5076 175.474 27.0121C175.199 27.4086 174.921 27.8092 174.647 28.2002C173.617 29.6728 172.595 31.1476 171.612 32.6523C168.757 37.0695 167.064 40.9579 166.396 44.639C166.212 43.8976 166.027 43.1546 165.843 42.416C163.566 33.2291 161.212 23.7629 157.944 14.8027C158.396 14.477 158.802 14.0753 159.123 13.5834C160.538 11.4166 159.926 8.50445 157.756 7.08028C155.586 5.65612 152.678 6.25715 151.263 8.42398C149.848 10.5908 150.46 13.5029 152.629 14.9283C153.807 15.7012 155.195 15.8591 156.451 15.5123C159.66 24.3484 161.991 33.714 164.243 42.8076C166.26 50.9457 168.318 59.2117 171.03 67.2428C167.77 62.7761 163.587 58.5169 158.449 54.5168C156.632 53.1012 154.735 51.8466 152.795 50.6948C151.521 47.9884 149.016 41.6203 149.207 34.2507C150.537 34.0949 151.791 33.3952 152.579 32.1871C153.994 30.0203 153.383 27.1082 151.214 25.6828C149.045 24.2574 146.136 24.8596 144.72 27.0249C143.305 29.1917 143.917 32.1039 146.086 33.5293C146.541 33.8284 147.03 34.0167 147.53 34.1424C147.357 40.3798 149.049 45.9327 150.415 49.3418C147.927 47.9796 145.403 46.7421 142.915 45.5285C140.629 44.4141 138.31 43.2776 136.03 42.0463C134.737 39.5572 134.38 36.7403 134.018 33.7559C133.882 32.6234 133.745 31.4922 133.555 30.3805C133.132 27.9045 132.407 25.5148 131.452 23.2124C131.933 22.8787 132.364 22.4544 132.704 21.932C134.119 19.7652 133.507 16.8531 131.339 15.4277C129.168 14.0035 126.261 14.6046 124.846 16.7714C123.431 18.9382 124.043 21.8503 126.213 23.2745C127.366 24.0318 128.72 24.2014 129.955 23.8847C130.851 26.0586 131.534 28.3133 131.934 30.6509C132.118 31.7349 132.252 32.8403 132.384 33.9454C132.657 36.2162 132.948 38.5428 133.688 40.736C131.904 39.6951 130.162 38.5741 128.501 37.332C125.132 34.8113 120.885 30.7644 118.408 25.181C118.689 24.9225 118.954 24.6393 119.173 24.303C120.588 22.1362 119.976 19.2241 117.806 17.7999C115.636 16.3757 112.728 16.9768 111.312 19.1421C109.897 21.3089 110.509 24.221 112.678 25.6464C114.018 26.5268 115.637 26.63 117.014 26.0716C119.649 31.8539 124.028 36.0376 127.518 38.6499C129.863 40.4039 132.346 41.9127 134.874 43.2908C134.975 43.383 135.094 43.446 135.224 43.4776C136.276 44.0451 137.333 44.5961 138.393 45.1291C137.579 45.2369 136.814 45.4198 136.162 45.6252C134.798 46.0533 133.501 46.6547 132.249 47.2356C131.483 47.591 130.717 47.9464 129.935 48.2604C129.614 48.3898 129.284 48.4956 128.957 48.6089C127.114 44.0117 123.609 41.235 120.737 39.3337C120.61 39.2487 120.396 39.1112 120.132 39.0107C120.342 37.2899 119.605 35.5177 118.056 34.5005C115.885 33.0763 112.978 33.6774 111.562 35.8426C110.147 38.0095 110.758 40.9216 112.927 42.347C115.099 43.7727 118.005 43.1701 119.421 41.0049C119.508 40.8716 119.564 40.7293 119.636 40.5902C119.684 40.6154 119.74 40.6472 119.831 40.707C123.789 43.3281 126.061 45.8611 127.385 49.107C124.27 49.9763 120.986 50.2276 117.771 49.8439C117.432 48.9405 116.827 48.1275 115.958 47.5566C113.787 46.1324 110.88 46.7335 109.464 48.8988C108.049 51.0656 108.66 53.9777 110.829 55.4031C112.999 56.8273 115.907 56.2262 117.322 54.0594C117.831 53.2814 118.068 52.4048 118.076 51.5378C122.3 51.9588 126.622 51.3743 130.554 49.7872C131.363 49.462 132.151 49.0936 132.944 48.7271C134.205 48.1415 135.394 47.5887 136.658 47.1919C138.264 46.6876 140.597 46.2937 142.587 47.2827C142.698 47.3391 142.815 47.358 142.932 47.3613C147.246 49.4675 151.651 51.6645 155.692 54.5174C155.085 54.4008 154.471 54.3103 153.855 54.2847C151.45 54.1793 149.114 54.7343 146.853 55.2723C146.182 55.4317 145.523 55.5811 144.871 55.72C144.836 54.2264 144.092 52.7734 142.746 51.8896C140.576 50.4655 137.669 51.0665 136.253 53.2318C134.838 55.3986 135.449 58.3107 137.619 59.7349C139.79 61.159 142.697 60.558 144.113 58.3927C144.309 58.0933 144.458 57.7774 144.576 57.4552C145.474 57.2803 146.363 57.0818 147.238 56.8746C149.487 56.3409 151.613 55.8344 153.789 55.9311C156.899 56.0666 159.981 57.5553 162.03 59.9116C162.159 60.0607 162.332 60.1397 162.513 60.1713C169.063 66.3018 173.564 72.9316 175.852 79.9591C175.93 80.2002 176.114 80.3724 176.332 80.4607C178.386 84.7589 180.754 88.9182 183.564 92.8696C183.827 93.2406 184.34 93.3281 184.711 93.0642C184.797 93.0031 184.868 92.9289 184.922 92.8444C185.102 92.5702 185.107 92.2012 184.903 91.9148C175.809 79.1302 171.308 64.0274 167.49 49.0115C169.758 50.7144 172.111 52.2993 174.549 53.7409C173.944 55.6917 174.65 57.8868 176.448 59.0679C178.618 60.492 181.525 59.891 182.941 57.7257C183.006 57.6282 183.043 57.522 183.099 57.4207C183.109 57.4076 183.121 57.4005 183.131 57.3874C183.153 57.3517 183.176 57.3132 183.195 57.2728C183.204 57.2526 183.202 57.2312 183.208 57.2107C184.233 55.116 183.581 52.5377 181.576 51.2214C179.51 49.8642 176.79 50.3617 175.311 52.2835C172.692 50.7308 170.166 49.0216 167.753 47.1637C167.986 43.2338 169.533 39.0785 172.576 34.2222C173.339 34.6381 173.997 35.3468 174.605 36.0709C175.276 36.8672 175.929 37.6799 176.582 38.4927C178.096 40.3753 179.661 42.3202 181.435 44.0565C182.312 44.9143 183.203 45.6619 184.101 46.3252C183.644 48.2022 184.367 50.2462 186.078 51.3693C188.248 52.7935 191.156 52.1924 192.572 50.0271C193.987 47.8603 193.375 44.9482 191.205 43.5241C189.065 42.1189 186.216 42.6911 184.779 44.7833C184.043 44.2188 183.309 43.5909 182.582 42.8803C180.88 41.2144 179.345 39.3069 177.862 37.4632C177.201 36.6411 176.539 35.8174 175.861 35.0118C175.359 34.4128 174.814 33.8247 174.192 33.3297C177.256 31.8572 180.589 30.8667 183.84 29.932C185.845 29.3566 187.917 28.7605 189.919 28.0489C194.314 26.4871 197.826 24.3954 200.335 21.8761C202.452 22.9884 205.092 22.3587 206.422 20.321C207.837 18.1542 207.226 15.2421 205.057 13.8167C202.893 12.3975 199.986 12.9985 198.571 15.1654Z" fill="#95BC8F"/>
</svg>
