<svg width="207" height="261" viewBox="0 0 207 261" fill="none" xmlns="http://www.w3.org/2000/svg">
<g clip-path="url(#clip0_98_240)">
<path d="M167.089 181.725C163.929 187.217 160.172 191.295 156.137 196.092C156.24 194.007 156.906 192.066 156.951 190.015C157.002 187.624 156.721 185.238 156.834 182.837C157.058 178.075 157.902 173.334 159.486 168.831C162.229 161.04 167.269 153.966 174.136 149.376C173.194 160.446 172.161 171.839 167.089 181.725Z" fill="#6F9969"/>
<path d="M160.109 207.725C159.914 207.838 159.717 207.951 159.519 208.061C154.84 210.689 149.87 213.222 146.636 217.505C148.008 213.663 148.851 210.139 151.107 206.718C153.443 203.176 156.098 199.829 159.33 197.059C162.202 194.6 165.409 192.528 168.843 190.944C170.15 190.342 178.46 188.613 178.815 187.883C174.679 196.401 168.3 202.988 160.109 207.725Z" fill="#6F9969"/>
<path d="M149.223 193.258C148.035 185.775 144.658 178.471 145.544 170.946C141.048 180.883 139.854 192.76 144.479 202.637C147.083 208.199 148.372 212.964 146.857 219.174C149.706 211.171 150.56 201.674 149.223 193.258Z" fill="#6F9969"/>
<path d="M136.907 194.332C135.464 196.454 134.796 199.861 134.029 202.31C133.119 205.22 131.569 207.996 131.37 211.089C131.146 214.581 132.708 217.899 133.985 221.156C137.622 230.433 140.756 241.012 137.337 250.958C143.001 232.503 142.101 212.817 136.907 194.332Z" fill="#6F9969"/>
<path d="M166.65 221.894C164.809 229.758 160.211 236.885 154.006 242.019C151.436 244.144 148.698 246.076 146.105 248.155C144.604 249.36 142.775 250.18 141.096 251.106C140.078 251.668 136.435 252.942 135.96 253.939C139.014 246.55 143.55 239.939 149.157 234.258C151.625 231.757 154.426 229.67 157.348 227.694C158.788 226.722 166.312 223.34 166.65 221.894Z" fill="#6F9969"/>
<path d="M120.177 188.801C117.952 193.583 114.686 197.877 112.981 202.869C111.505 207.185 111.338 211.914 112.372 216.349C112.894 218.591 113.773 219.89 114.987 221.712C116.541 224.045 117.283 226.708 118.307 229.276C120.706 216.032 118.597 202.16 120.177 188.801Z" fill="#6F9969"/>
<path d="M157.036 191.783C153.082 199.929 149.1 208.141 146.712 216.911C145.486 221.415 144.702 226.023 143.574 230.551C142.492 234.893 141.085 239.147 139.497 243.327C136.239 251.895 132.694 260.525 127.228 267.942C121.897 275.176 115.455 281.491 109.945 288.581C104.374 295.751 99.6285 303.871 98.5659 313.041C98.4511 314.035 100.002 314.141 100.118 313.148C102.143 295.671 116.952 283.741 127.093 270.695C129.921 267.057 132.483 263.21 134.485 259.052C136.448 254.974 138.214 250.774 139.897 246.575C141.56 242.424 143.072 238.207 144.289 233.902C145.524 229.532 146.341 225.068 147.373 220.65C149.703 210.675 154.057 201.457 158.508 192.287C158.942 191.388 157.469 190.891 157.036 191.783Z" fill="#6F9969"/>
<path d="M124.882 273.648C129.038 272.277 133.406 271.695 137.666 270.745C139.879 270.251 142.075 269.665 144.209 268.897C146.546 268.054 148.785 266.937 150.981 265.782C159.985 261.045 167.796 254.491 175.471 247.887C179.76 244.197 184.046 240.497 188.573 237.097C189.375 236.495 188.362 235.314 187.566 235.912C179.541 241.936 172.295 248.91 164.391 255.083C156.662 261.121 148.082 266.684 138.436 268.974C133.702 270.099 128.847 270.716 124.214 272.245C123.264 272.557 123.944 273.957 124.882 273.648Z" fill="#6F9969"/>
<path d="M115.498 283.893C117.612 280.069 119.757 276.192 121.027 271.99C122.326 267.691 122.285 263.315 122.2 258.871C122.115 254.469 121.993 250.055 121.399 245.687C120.78 241.146 119.31 236.8 118.549 232.291C117.758 227.609 117.845 222.784 118.797 218.132C118.995 217.165 117.526 216.65 117.325 217.631C116.503 221.65 116.262 225.74 116.656 229.826C117.087 234.279 118.508 238.516 119.362 242.89C120.211 247.241 120.469 251.676 120.588 256.099C120.708 260.504 121.042 265.082 120.098 269.419C119.038 274.285 116.599 278.702 114.212 283.021C113.732 283.887 115.012 284.77 115.498 283.893Z" fill="#6F9969"/>
<path d="M106.143 226.942C106.218 229.554 106.292 232.166 106.366 234.779C106.457 238 106.612 241.421 108.434 244.078C109.216 245.217 110.264 246.145 111.334 247.018C112.981 248.362 115.057 249.288 116.641 250.601C118.458 252.106 119.765 254.734 121.13 256.654C119.793 254.773 121.133 249.995 120.64 247.722C120.207 245.725 118.844 244.084 117.854 242.323C114.652 236.629 110.935 231.422 106.143 226.942Z" fill="#6F9969"/>
<path d="M130.028 247.189C129.531 250.407 129.023 254.2 127.372 257.029C125.941 259.481 122.211 262.128 121.446 264.827C123.089 259.017 124.107 253.029 124.471 247.002C124.675 243.657 124.71 240.147 125.875 236.962C126.44 235.416 127.306 234.155 128.254 232.832C128.635 232.299 130.817 230.107 130.787 229.659C131.177 235.506 130.922 241.397 130.028 247.189Z" fill="#6F9969"/>
<path d="M206.016 219.944C204.904 220.196 201.581 226.634 200.617 227.798C198.482 230.379 196.109 232.761 193.539 234.908C188.616 239.021 182.923 241.771 178.037 245.959C183.663 238.141 185.807 228.663 194.902 223.602C198.323 221.7 202.199 220.812 206.016 219.944Z" fill="#6F9969"/>
<path d="M164.983 238.445C163.269 241.464 161.441 245.515 161.644 249.071C161.851 252.699 162.291 255.172 161.177 258.898C170.136 249.022 174.933 236.166 179.528 223.649C179.062 224.919 177.19 225.394 176.214 226.013C174.759 226.935 173.492 228.102 172.239 229.321C169.447 232.039 166.911 235.046 164.983 238.445Z" fill="#6F9969"/>
<path d="M186.819 257.359C181.416 261.142 175.236 263.787 168.791 265.171C165.536 265.87 162.296 266.113 158.983 266.284C157.565 266.356 156.328 266.797 154.892 266.693C153.942 266.623 152.992 266.498 152.049 266.357C151.632 266.294 149.79 265.699 149.487 265.899C157.876 260.403 167.014 257.639 177.015 256.833C180.3 256.566 183.693 256.313 186.819 257.359Z" fill="#6F9969"/>
<path d="M-20.8027 216.125C-23.9605 225.022 -27.9344 235.61 -28.5581 245.119C-29.1419 254.014 -21.1979 257.325 -14.3343 260.33C-10.9363 261.817 -2.98628 266.182 -1.47096 269.958C0.177418 274.069 -5.56014 275.288 -9.04558 274.696C-11.0375 274.359 -24.0558 271.429 -24.1849 269.04C-22.9297 292.33 -16.5745 315.183 -5.98316 335.889C-1.72914 344.204 3.72641 344.276 11.5989 341.928C20.7663 339.196 29.6497 335.982 37.8102 330.902C48.3717 324.327 58.4189 316.917 67.773 308.711C73.3993 303.773 118.494 256.822 109.421 251.724C107.71 250.763 105.59 251.194 103.666 251.585C99.4477 252.443 95.164 252.983 90.8623 253.2C89.4284 253.271 87.9389 253.299 86.6182 252.731C85.2995 252.165 84.1953 250.84 84.3422 249.413C84.4614 248.255 85.3332 247.323 86.2428 246.598C93.3428 240.92 104.683 242.263 110.839 235.574C112.945 233.288 114.146 230.327 115.133 227.38C118.823 216.363 120.08 204.706 121.316 193.153C121.973 186.996 122.632 180.842 123.29 174.685C123.369 173.946 123.447 173.19 123.274 172.469C122.791 170.461 120.454 169.365 118.396 169.559C116.341 169.754 114.514 170.902 112.776 172.018C107.894 175.154 103.015 178.288 98.133 181.424C96.6177 182.397 95.0229 183.398 93.2276 183.539C91.4342 183.68 89.4085 182.637 89.1007 180.864C88.908 179.751 89.4105 178.639 89.9845 177.666C97.7458 164.481 115.381 158.416 115.656 141.197C115.771 133.988 112.885 127.083 109.614 120.656C106.943 115.407 103.978 110.311 100.818 105.342C98.7268 102.051 95.6148 94.7645 91.6646 93.3286C87.7681 91.9146 83.0414 96.2897 80.0564 98.2221C64.0393 108.583 48.2566 119.168 34.7498 132.816C33.9911 133.583 33.2027 134.429 33.0398 135.493C32.8631 136.655 33.4767 137.775 34.0666 138.792C37.7844 145.185 41.0573 152.202 46.0283 157.641C47.766 159.542 49.472 160.902 49.4283 163.854C49.3707 167.732 46.92 168.455 44.3004 165.653C38.9204 159.893 34.2334 151.85 27.8643 147.245C27.0222 146.635 26.0411 146.087 25.0064 146.182C23.6698 146.305 22.6848 147.439 21.8566 148.496C15.9761 155.995 10.5344 163.84 5.5714 171.976C4.75118 173.321 3.91309 174.8 4.07793 176.365C4.28844 178.367 6.02818 179.799 7.56336 181.1C14.4508 186.937 21.1119 194.504 25.0978 202.636C26.0868 204.656 26.915 206.974 26.2258 209.115C25.9835 209.871 25.5347 210.588 24.8595 211.007C23.5547 211.816 21.8487 211.315 20.4684 210.642C13.6683 207.319 9.3031 200.628 4.1951 195.042C3.03131 193.769 1.69274 192.478 -0.0112506 192.21C-3.72309 191.628 -8.61859 196.833 -10.8469 199.409C-15.0612 204.293 -18.6419 210.036 -20.8027 216.125Z" fill="#528C4D"/>
<path d="M63.5965 137.178C66.9866 145.551 70.6468 153.808 74.4778 161.989C77.711 147.868 80.543 133.656 83.0653 119.393C83.4287 117.335 86.5368 118.273 86.1773 120.308C83.5617 135.102 80.5947 149.844 77.2085 164.487C81.1865 162.797 84.6004 159.518 87.9091 156.922C92.465 153.35 97.0189 149.777 101.575 146.204C103.203 144.927 105.446 147.274 103.799 148.565C98.8877 152.418 93.9744 156.273 89.061 160.126C85.1506 163.192 81.2083 166.84 76.3327 168.229C72.5295 184.284 68.1682 200.199 63.098 215.903C73.5543 209.623 83.532 202.6 92.9138 194.799C94.5106 193.471 96.7468 195.822 95.1382 197.161C84.6918 205.848 73.5444 213.653 61.8031 220.488C61.7296 220.532 61.6502 220.522 61.5747 220.552C61.1279 221.896 60.7088 223.249 60.252 224.587C56.9354 234.291 53.3189 243.903 49.3985 253.388C49.5574 253.726 49.7143 254.066 49.8752 254.403C60.1587 249.917 70.4422 245.431 80.7277 240.944C82.6263 240.116 84.1655 242.974 82.245 243.812C71.4412 248.525 60.6393 253.238 49.8355 257.952C49.0986 258.274 48.1752 258.113 47.7303 257.388C42.807 268.991 37.4011 280.386 31.4729 291.502C32.4381 291.152 33.576 290.63 33.9137 290.517C36.1579 289.76 38.3941 288.982 40.6224 288.181C45.9032 286.287 51.1403 284.269 56.3297 282.136C66.0313 278.15 75.5562 273.749 84.8983 268.983C86.7533 268.035 88.2825 270.897 86.4156 271.85C70.617 279.91 54.2821 286.884 37.5242 292.691C35.4489 293.41 33.3735 294.153 31.2723 294.797C30.6666 294.981 30.0807 295.13 29.5127 295.126C25.3937 302.661 21.0325 310.063 16.4051 317.304C16.4865 317.306 16.56 317.316 16.6454 317.314C17.978 317.282 19.4298 316.821 20.7445 316.589C23.4772 316.106 26.21 315.622 28.9407 315.137C34.7458 314.109 40.5529 313.082 46.36 312.053C48.4075 311.692 49.1543 314.849 47.0888 315.215C40.4278 316.394 33.7687 317.574 27.1076 318.752C23.8645 319.326 20.6273 319.971 17.3742 320.476C16.2958 320.642 15.277 320.7 14.3376 320.492C13.9702 321.054 13.6127 321.622 13.2414 322.182C2.0284 339.118 -10.6542 355.074 -24.7965 369.661C-26.2503 371.16 -28.4726 368.797 -27.0209 367.3C-12.5588 352.383 0.284687 336.024 11.6367 318.67C10.0777 316.73 9.02906 314.114 7.94073 311.922C6.62004 309.263 5.38871 306.558 4.24676 303.817C1.91122 298.201 -0.0410177 292.435 -1.62982 286.565C-2.17597 284.549 0.985746 283.818 1.5319 285.836C4.27457 295.964 8.13734 305.777 13.1897 314.98C13.3228 315.223 13.4559 315.443 13.5889 315.65C18.2838 308.315 22.7126 300.808 26.8892 293.16C26.5635 292.409 26.3808 291.573 26.1762 290.811C25.5506 288.471 24.9389 286.128 24.3372 283.782C22.0592 274.903 19.9441 265.98 17.9939 257.023C15.7854 246.88 13.7975 236.694 12.0081 226.47C11.6506 224.423 14.8083 223.676 15.1698 225.741C18.8677 246.87 23.4474 267.841 28.9367 288.577C28.9765 288.727 29.0142 288.926 29.0539 289.142C30.8711 285.723 32.6466 282.283 34.3645 278.813C38.4815 270.496 42.2946 262.041 45.8615 253.484C40.2828 241.369 35.8024 228.78 32.5016 215.851C31.9853 213.827 35.145 213.094 35.6633 215.122C38.6582 226.85 42.6342 238.273 47.5376 249.321C51.7261 238.982 55.573 228.504 59.0624 217.903C55.5472 204.91 53.452 191.584 52.7906 178.137C52.6874 176.05 55.9305 176.157 56.0338 178.232C56.5938 189.648 58.2501 200.968 60.9193 212.068C64.4564 200.9 67.6757 189.632 70.5594 178.288C71.5047 174.574 72.3885 170.844 73.2703 167.115C68.8038 157.77 64.6173 148.297 60.7287 138.697C59.9541 136.782 62.812 135.239 63.5965 137.178Z" fill="#264F21"/>
<path d="M71.0737 58.315C70.6204 57.876 69.9025 57.8998 69.467 58.3547C68.783 59.0223 64.0047 60.0037 61.865 60.1268C60.5825 60.2023 59.3257 60.2182 58.0809 60.2401C55.132 60.2838 52.0837 60.3295 48.926 61.1401C45.8677 61.9268 42.9764 63.2459 40.0931 65.173C40.0911 65.173 40.0911 65.173 40.0911 65.173C38.4466 66.2736 36.9234 67.4914 35.4062 68.8225C35.7602 68.2384 36.1101 67.6543 36.4661 67.0663C36.826 66.4663 37.2118 65.8405 37.5796 65.2326C38.0728 65.3458 38.5918 65.1353 38.8364 64.6803C40.4252 61.7142 42.8352 59.3481 45.3825 56.8429C46.3012 55.943 47.2178 55.039 48.0948 54.1093C55.2692 46.5083 59.3019 36.9247 60.7873 23.9518C61.1472 20.8089 61.2625 17.6123 61.3739 14.5231C61.531 10.1782 61.692 5.68638 62.5451 1.38327C62.5451 1.38128 62.5451 1.37931 62.5471 1.37733C62.6684 0.76345 62.2826 0.163465 61.6582 0.0224119C61.0418 -0.0987744 60.4492 0.282669 60.3279 0.896547C60.1629 1.33361 58.8425 2.47002 58.2122 3.01635C57.7151 3.44348 57.2796 3.8249 57.033 4.0931C55.4442 5.81156 54.0742 7.38501 52.8433 8.89885C49.8665 12.5642 47.5599 16.019 45.7881 19.4639C44.4817 22.0028 43.6067 24.6749 43.1116 27.631C42.6264 30.5256 42.5767 33.4639 42.529 36.3048C42.4912 38.5756 42.4514 40.9238 42.183 43.1707C41.6759 47.4142 40.459 51.2386 39.1704 55.2874C38.5719 57.1668 37.9913 59.1097 37.4564 61.0845C36.4363 62.7215 35.4639 64.3266 34.5194 65.9001C32.4871 69.2854 30.5026 72.5654 28.1641 75.8215C25.8058 78.2512 23.527 80.7703 21.3575 83.3648C22.6719 80.1941 23.8968 76.938 24.6922 73.5686C26.2989 66.7603 26.7841 60.6653 26.1796 54.9337C25.8177 51.5127 25.0402 48.1234 24.2906 44.8435C23.2744 40.4053 22.2245 35.8141 22.2583 31.2627C22.2623 30.7461 21.9044 30.2753 21.4152 30.1581C20.9141 30.027 20.3872 30.2475 20.1326 30.6985C16.1477 37.761 11.6318 45.7653 10.3314 54.4768C9.43258 60.4964 10.0391 66.953 12.0832 73.1494C12.5167 74.4567 12.9781 75.7182 13.4334 76.9559C14.9148 80.9947 16.3008 84.823 16.2014 89.3526C10.3314 95.5748 4.45738 101.988 -1.26351 108.607L-1.15215 108.103C0.476422 100.867 0.371035 93.2922 -1.46235 86.1958C-2.70118 81.396 -4.7016 76.8327 -6.63441 72.4183L-14.4512 54.586C-14.652 54.1351 -15.1173 53.8629 -15.6065 53.9126C-16.0976 53.9603 -16.4993 54.3198 -16.6027 54.8026C-18.0066 61.3169 -19.0804 67.9801 -19.7962 74.6017C-20.359 79.8047 -20.5837 84.1694 -19.8559 88.5461C-18.8994 94.2756 -16.2686 99.5402 -14.0833 103.488C-12.4249 106.482 -10.5279 109.611 -7.91699 112.217C-7.33038 112.803 -6.56084 113.485 -5.71374 113.834C-12.9419 122.476 -19.834 131.47 -26.058 140.849C-24.0078 134.09 -21.9895 127.107 -22.6477 119.711C-23.3039 112.322 -25.5191 105.276 -27.7323 98.6939C-29.16 94.4504 -30.8721 90.1115 -34.7019 87.7891C-34.9763 87.6262 -35.3084 87.5805 -35.6166 87.6719C-35.9229 87.7633 -36.1794 87.9798 -36.3166 88.2699C-41.4648 98.982 -43.7416 108.391 -43.2783 117.043C-42.8905 124.284 -40.4546 130.182 -37.1259 135.654C-40.8543 135.052 -44.6583 136.14 -47.9552 137.34C-56.0881 140.302 -63.6921 144.471 -70.5564 149.733C-70.9083 150.003 -71.0694 150.452 -70.972 150.885C-70.8904 151.247 -70.6359 151.545 -70.2959 151.684C-70.2342 151.71 -70.1666 151.73 -70.101 151.746C-63.5251 153.144 -56.7264 154.591 -49.8383 154.781C-45.3463 154.904 -41.8704 154.416 -38.8937 153.236C-35.6942 151.97 -32.9381 149.823 -30.4605 147.735C-45.3344 171.956 -55.3583 198.72 -54.903 228.663C-54.895 229.132 -54.6067 229.529 -54.1991 229.696C-54.0599 229.754 -53.9087 229.786 -53.7497 229.782C-53.1213 229.774 -52.6222 229.257 -52.6301 228.631C-52.9742 206.013 -47.2016 185.199 -37.8517 165.917C-35.8811 169.214 -33.4293 172.828 -29.9653 176.056C-25.6722 180.062 -20.9654 183.687 -15.9763 186.832C-15.865 186.902 -6.4296 192.242 -2.03901 194.048C-0.981139 194.483 -0.215568 194.711 0.0548665 194.614C0.384956 194.495 0.655387 194.219 0.764754 193.887C2.86261 187.49 -0.98114 181.208 -3.4588 178.035C-7.30453 173.11 -12.4408 169.135 -18.3148 166.542C-24.5268 163.799 -30.1722 162.384 -35.9268 162.053C-33.5904 157.511 -31.061 153.057 -28.3706 148.684C-28.2075 148.702 -28.0425 148.698 -27.8794 148.643C-23.4093 147.125 -19.7326 147.47 -15.4752 147.87C-14.2523 147.985 -12.9876 148.102 -11.6494 148.182C-5.98815 148.525 -0.253349 148.07 5.39794 146.827C11.0194 145.591 16.4201 143.604 21.451 140.924C23.9108 139.613 26.291 138.125 28.5221 136.508C28.8661 136.258 29.4427 135.717 30.435 134.78C31.469 133.802 33.5868 131.802 34.2589 131.448C34.752 131.384 35.1656 131.001 35.2392 130.484C35.3287 129.865 34.8912 129.298 34.2787 129.197C34.2787 129.195 34.2748 129.197 34.2728 129.197C24.2428 127.735 12.6002 126.334 1.38119 128.18C-4.74336 129.187 -10.3469 131.136 -15.2744 133.971C-18.1597 135.634 -20.6373 137.911 -22.9679 140.314C-17.4538 132.159 -11.4346 124.3 -5.14503 116.707C-3.99967 117.027 -2.85628 117.359 -1.71489 117.698C0.82839 118.455 3.45916 119.236 6.12174 119.8C15.7261 121.835 25.1794 118.272 34.8236 114.114C41.2325 111.355 47.709 108.131 50.3318 101.811C50.4949 101.416 50.4233 100.961 50.1449 100.637C49.8665 100.309 49.429 100.17 49.0115 100.273C43.0042 101.741 36.6212 101.704 30.4469 101.666C27.4105 101.646 24.2667 101.626 21.1806 101.783C14.4416 102.125 8.89966 103.414 4.31421 105.679C8.75649 100.665 13.2664 95.7715 17.7763 90.9896C18.0427 90.8764 18.2674 90.6717 18.3848 90.3896C18.3947 90.3638 18.4066 90.338 18.4166 90.3122C19.4009 89.2711 20.3832 88.2341 21.3655 87.205C22.4612 86.5852 24.7002 85.9952 26.0205 85.6515C26.7583 85.4588 27.4085 85.2879 27.8599 85.1369C31.2781 83.9906 34.8813 83.3569 38.3671 82.743C45.1856 81.543 52.2348 80.3014 58.3017 75.2096C61.3321 72.6647 63.6805 69.4662 65.9494 66.3729C67.566 64.1717 69.2364 61.897 71.1155 59.9222C71.1274 59.9103 71.1394 59.8964 71.1513 59.8845C71.1632 59.8726 71.1553 59.8805 71.1533 59.8805C71.1533 59.8805 71.1533 59.8785 71.1553 59.8785C71.545 59.4216 71.5132 58.7322 71.0737 58.315ZM-5.2544 179.424C-3.60197 181.54 -0.0803511 186.798 -1.10442 192.041C-4.22834 190.601 -13.5086 185.698 -14.7673 184.905C-19.6351 181.834 -24.2286 178.295 -28.4183 174.388C-31.232 171.763 -33.3577 168.831 -35.1215 166.02C-27.7442 168.906 -21.5501 174.328 -15.5707 179.607C-12.3533 182.446 -9.02855 185.384 -5.52086 187.927C-5.46518 187.968 -5.40552 188 -5.34388 188.026C-4.98794 188.173 -4.56638 188.064 -4.32975 187.738C-4.05335 187.357 -4.13886 186.826 -4.52065 186.548C-7.96074 184.053 -11.2557 181.142 -14.4412 178.329C-20.532 172.951 -26.8414 167.426 -34.4991 164.436C-29.5537 164.909 -24.6322 166.225 -19.2375 168.612C-13.7055 171.054 -8.87146 174.793 -5.2544 179.424ZM44.7998 36.3366C44.8476 33.5791 44.8953 30.7263 45.3506 28.0006C45.806 25.2788 46.6094 22.8253 47.8064 20.4969C49.5066 17.1931 51.7297 13.8675 54.6051 10.3252C55.8061 8.84518 57.1464 7.30953 58.7014 5.62881C58.9082 5.40432 59.28 5.09037 59.6956 4.73079C59.7055 4.72284 59.7155 4.71291 59.7254 4.70496C59.3357 7.96308 59.2184 11.2391 59.101 14.4356C58.9917 17.4832 58.8783 20.632 58.5284 23.6895C57.1006 36.1498 53.2589 45.3203 46.4403 52.5458C45.5813 53.4577 44.6865 54.3377 43.7877 55.2198C43.6346 55.3708 43.4854 55.5337 43.3303 55.6847C46.8082 49.8975 49.4708 44.1541 51.2187 38.5577C52.0837 35.7863 52.3362 32.8858 52.5768 30.0846C52.9526 25.7517 53.3066 21.6592 55.7405 17.968C55.999 17.5766 55.8916 17.0461 55.4959 16.7878C55.1161 16.5296 54.5752 16.6369 54.3148 17.0302C51.6442 21.079 51.2545 25.5808 50.8787 29.9356C50.642 32.6494 50.3994 35.4545 49.5901 38.0491C47.8283 43.6893 45.0941 49.4903 41.5248 55.347C42.7258 51.5664 43.9289 47.6566 44.434 43.429C44.7203 41.0708 44.7621 38.663 44.7998 36.3366ZM14.2407 72.4263C12.304 66.5676 11.7293 60.4745 12.5764 54.8026C13.6124 47.8553 16.8715 41.2476 20.1883 35.238C20.5462 38.6709 21.3198 42.0483 22.0734 45.3421C22.8091 48.5566 23.5687 51.8822 23.9167 55.1681C24.4974 60.6374 24.0261 66.4861 22.4791 73.0401C21.5743 76.8764 20.0591 80.6232 18.508 84.2688C19.6972 76.5585 19.8185 70.0661 18.8839 63.4843C18.0308 57.4707 17.47 51.6597 19.9298 46.6871C20.1386 46.2659 19.9656 45.7554 19.544 45.5468C19.1324 45.3481 18.6114 45.511 18.4007 45.9322C15.7261 51.3339 16.3386 57.6832 17.1936 63.7227C17.9811 69.2734 17.993 74.7725 17.2314 81.0384C16.7423 79.4034 16.1656 77.7982 15.5651 76.1632C15.1197 74.9494 14.6663 73.7116 14.2407 72.4263ZM-12.0988 102.379C-14.1966 98.5926 -16.718 93.5524 -17.6168 88.1646C-18.3029 84.0403 -18.0821 79.8524 -17.5413 74.8361C-16.9606 69.4701 -16.1434 64.0783 -15.1014 58.762L-8.72034 73.3222C-6.82133 77.6512 -4.85869 82.1311 -3.6656 86.7541C-1.92368 93.5028 -1.82227 100.71 -3.3713 107.594L-3.55822 108.44C-3.68548 109.026 -3.8545 109.813 -4.0454 110.479C-4.43713 108.583 -4.77518 106.68 -5.07544 104.819C-5.64812 101.265 -6.24069 97.5913 -7.41589 94.0173L-8.14566 91.8419C-9.7464 87.1196 -11.4008 82.2384 -10.9892 77.2598C-10.9514 76.791 -11.3014 76.3797 -11.7687 76.342C-12.238 76.3042 -12.6516 76.6519 -12.6894 77.1208C-13.1288 82.449 -11.4147 87.5011 -9.75833 92.3882L-9.03253 94.5497C-7.89909 97.9946 -7.31845 101.602 -6.75571 105.089C-6.43158 107.099 -6.06769 109.162 -5.62824 111.22C-5.82709 111.059 -6.04383 110.872 -6.31227 110.604C-8.72829 108.194 -10.5219 105.228 -12.0988 102.379ZM-41.0114 116.912C-41.4369 108.979 -39.4206 100.315 -34.8491 90.4651C-32.3615 92.5511 -31.0352 96.0059 -29.8918 99.4091C-27.7223 105.862 -25.5509 112.759 -24.9166 119.902C-24.2723 127.145 -26.3145 133.858 -28.474 140.962C-28.5217 141.117 -28.5674 141.272 -28.6152 141.427C-30.5858 130.848 -31.755 120.078 -32.0055 109.338C-32.0155 108.868 -32.4052 108.494 -32.8765 108.504C-33.3478 108.516 -33.7196 108.905 -33.7077 109.376C-33.4591 120.148 -32.2879 130.947 -30.3233 141.56C-35.7896 134.188 -40.4805 126.791 -41.0114 116.912ZM-39.7368 151.118C-42.4173 152.179 -45.6088 152.618 -49.7806 152.501C-55.6169 152.34 -61.467 151.231 -67.17 150.035C-61.0236 145.611 -54.3104 142.061 -47.1797 139.464C-43.8072 138.236 -39.88 137.118 -36.3325 138.137C-35.9427 138.242 -35.8055 138.354 -35.7678 138.385C-35.6325 138.811 -35.2667 139.097 -34.8491 139.158C-33.8688 140.583 -32.8467 141.991 -31.7967 143.4C-39.3093 142.458 -46.9689 143.179 -54.1812 145.573C-54.6286 145.722 -54.8692 146.203 -54.722 146.652C-54.6405 146.896 -54.4576 147.079 -54.2368 147.17C-54.0539 147.246 -53.8451 147.258 -53.6423 147.192C-46.3525 144.773 -38.5894 144.105 -31.0093 145.216C-33.6918 147.506 -36.4737 149.827 -39.7368 151.118ZM-14.1429 135.932C-9.45409 133.232 -4.10704 131.376 1.74707 130.411C11.6219 128.788 21.9342 129.767 31.121 131.035C30.5145 131.575 29.7768 132.259 28.8661 133.119C28.1562 133.79 27.4204 134.486 27.1798 134.66C25.0323 136.218 22.7435 137.648 20.3752 138.91C15.5293 141.493 10.3234 143.408 4.90479 144.6C-0.539693 145.796 -6.06371 146.235 -11.5161 145.905C-12.8266 145.823 -14.0674 145.708 -15.2664 145.597C-17.8435 145.355 -20.345 145.146 -22.9818 145.349C-12.5402 140.686 -1.13226 137.978 10.2717 137.513C10.743 137.493 11.1089 137.098 11.089 136.627C11.0691 136.156 10.6674 135.789 10.2021 135.811C-1.08056 136.272 -12.3752 138.876 -22.7611 143.376C-20.1203 140.549 -17.3603 137.783 -14.1429 135.932ZM21.2919 104.048C24.3164 103.895 27.4244 103.915 30.429 103.933C35.9371 103.967 41.6103 104.002 47.1403 102.989C44.3504 107.244 39.1167 109.787 33.9208 112.026C24.6266 116.03 15.5432 119.468 6.59103 117.571C4.01991 117.027 1.4309 116.258 -1.07062 115.517C-1.7825 115.304 -2.49637 115.094 -3.21024 114.887C-0.740533 113.282 2.40923 112.948 5.213 112.805C7.48783 112.688 9.78852 112.644 12.0892 112.601C19.8781 112.454 27.9315 112.301 35.2173 109.217C35.6508 109.034 35.8536 108.534 35.6707 108.101C35.4858 107.668 34.9866 107.465 34.5532 107.648C27.5716 110.604 19.6832 110.753 12.0574 110.898C9.7388 110.942 7.42221 110.985 5.1275 111.105C3.23446 111.2 1.31557 111.411 -0.49992 111.889C0.544036 110.834 1.6198 109.863 2.85267 109.078C7.5634 106.082 13.5945 104.437 21.2919 104.048ZM64.114 65.0279C61.8233 68.149 59.6578 71.0972 56.8362 73.4673C51.2366 78.1677 44.7939 79.3021 37.9714 80.502C34.404 81.1298 30.7154 81.7795 27.1361 82.9794C26.9353 83.047 26.6887 83.1185 26.4143 83.192C28.7309 81.6702 31.3954 80.5576 34.0063 79.4789L34.8972 79.1114C42.2208 76.0678 49.3853 72.468 56.1899 68.4112C56.5936 68.1709 56.7268 67.6483 56.4862 67.2431C56.2436 66.8398 55.7226 66.7047 55.317 66.9491C48.5819 70.9621 41.491 74.5262 34.243 77.5379L33.3541 77.9075C31.3318 78.7419 29.2757 79.5902 27.3449 80.6391C28.2337 79.5504 29.053 78.4617 29.8404 77.373C30.5125 76.6817 31.1687 75.9745 31.8548 75.299C35.2233 71.9753 38.0628 69.2595 41.3558 67.0583C44.0243 65.2763 46.6849 64.0584 49.4907 63.3373C52.3859 62.5943 55.1698 62.5526 58.1128 62.5089C59.3914 62.487 60.6799 62.4692 61.9923 62.3937C62.4417 62.3678 64.5276 62.1334 66.6255 61.6764C65.7605 62.787 64.9313 63.9154 64.114 65.0279Z" fill="#6F9969"/>
</g>
<defs>
<clipPath id="clip0_98_240">
<rect width="207" height="261" fill="white"/>
</clipPath>
</defs>
</svg>
