<svg width="160" height="253" viewBox="0 0 160 253" fill="none" xmlns="http://www.w3.org/2000/svg">
<g clip-path="url(#clip0_98_240)">
<path d="M75.978 73.6288C64 87.0398 55.2861 105.416 57.8881 123.344C59.6072 135.199 61.6603 146.968 62.9077 159.063C63.6299 166.067 64.3541 173.07 65.0763 180.074C65.4323 183.518 68.4624 194.407 66.8507 197.266C82.0602 170.271 112.983 157.115 129.482 130.601C145.537 104.805 143.533 64.1711 145.091 34.2713C122.994 42.5944 100.364 51.2358 82.7211 66.8977C80.3987 68.9587 78.1362 71.2125 75.978 73.6288Z" fill="#6F9969"/>
<path d="M73.9252 167.699C77.2728 159.559 80.0139 151.191 82.3832 142.712C84.6878 134.47 86.2971 125.984 88.8495 117.82C91.1579 110.441 94.7372 103.574 98.7756 97.0153C101.581 92.4595 104.588 88.0319 107.5 83.5474C108.955 81.3061 110.443 79.0838 112.056 76.9514C129.706 53.6221 151.26 33.5606 168.734 10.0841C178.663 -3.25557 187.154 -17.7343 192.472 -33.5668C192.858 -34.7145 194.705 -34.2637 194.316 -33.1061C184.818 -4.8274 165.681 18.2523 146.103 40.1431C136.196 51.2203 126.101 62.1519 116.877 73.8152C113.769 77.7448 110.894 81.8515 108.144 86.042C102.372 94.8382 96.2641 103.692 92.3494 113.589C90.5961 118.023 89.503 122.618 88.3634 127.239C87.2149 131.893 86.0427 136.543 84.78 141.168C82.2323 150.495 79.2597 159.691 75.5823 168.631C75.1197 169.756 73.4648 168.816 73.9252 167.699Z" fill="#295021"/>
<path d="M105.025 60.9287C116.474 56.2137 127.921 51.4986 139.37 46.7836C140.015 46.5182 140.778 47.2771 140.561 47.9247C135.107 64.1233 131.327 80.8523 129.282 97.8341C129.137 99.044 127.294 98.5732 127.438 97.3752C129.483 80.3934 133.263 63.6663 138.717 47.4658C139.114 47.8468 139.511 48.2258 139.908 48.6068C128.46 53.3218 117.013 58.0369 105.564 62.7519C104.436 63.215 103.907 61.3882 105.025 60.9287Z" fill="#295021"/>
<path d="M83.3796 91.1032C93.3522 83.2117 104.738 77.2499 116.904 73.5089C117.561 73.3076 118.313 73.9573 118.095 74.6504C112.748 91.6434 110.199 109.417 110.569 127.252C110.595 128.473 108.697 128.52 108.671 127.298C108.299 109.307 110.858 91.335 116.252 74.1928C116.649 74.574 117.046 74.9531 117.443 75.3343C105.424 79.0288 94.2143 84.9373 84.3617 92.7337C83.4096 93.4865 82.4356 91.8503 83.3796 91.1032Z" fill="#295021"/>
<path d="M68.2276 132.473C70.1406 126.299 73.6137 120.579 78.4022 116.217C82.8638 112.151 88.8776 110.448 94.467 108.541C95.0789 108.332 95.7036 108.797 95.6815 109.445C95.1898 123.775 96.0845 138.139 98.3989 152.298C98.594 153.49 96.7768 154.034 96.58 152.83C94.2373 138.496 93.2857 123.983 93.7849 109.475C94.1905 109.77 94.5962 110.066 95.0038 110.362C89.7475 112.156 83.9625 113.714 79.7643 117.541C75.223 121.679 71.8873 127.069 70.0712 132.93C69.7115 134.092 67.8657 133.641 68.2276 132.473Z" fill="#295021"/>
<path d="M31.5743 16.2307C51.8232 -1.75918 84.2001 -15.0377 111.543 -10.4133C121.056 -8.80474 129.982 -5.02162 138.785 -1.25195C146.833 2.19421 154.817 6.20822 163.342 8.03838C161.904 7.72888 158.354 13.3395 157.565 14.3311C155.452 16.9976 153.443 19.7663 151.243 22.3728C146.9 27.5158 142.041 32.3085 136.493 36.1483C126.35 43.1725 109.486 43.6068 97.5816 42.4413C73.7785 40.1106 52.0839 28.4096 31.5743 16.2307Z" fill="#6F9969"/>
<path d="M176.032 2.97888C163.005 9.60367 149.429 15.223 135.283 18.8716C128.013 20.7463 120.527 22.1883 113.079 23.0655C105.582 23.9493 98.0202 23.8487 90.5066 23.4832C81.77 23.0574 73.0591 22.2708 64.3085 22.1046C63.0898 22.082 63.0454 20.1848 64.268 20.2075C79.4055 20.4926 94.526 22.7209 109.689 21.4998C117.001 20.9109 124.379 19.5335 131.526 17.8521C138.665 16.1725 145.681 13.9794 152.551 11.3912C160.241 8.49346 167.73 5.08803 175.059 1.36063C176.149 0.806025 177.128 2.42246 176.032 2.97888Z" fill="#295021"/>
<path d="M69.0062 28.62C76.8221 27.1851 84.4934 25.0965 91.96 22.3701C91.8947 22.9496 91.8275 23.529 91.7622 24.1085C82.002 19.4051 72.7798 13.7026 64.1892 7.10926C63.2238 6.36771 64.5539 5.0109 65.5136 5.74829C73.9706 12.2401 83.0876 17.8261 92.6936 22.4531C93.4788 22.8316 93.2094 23.9306 92.4959 24.1916C85.0293 26.918 77.358 29.0066 69.5421 30.4415C68.3496 30.6594 67.8057 28.8396 69.0062 28.62Z" fill="#295021"/>
<path d="M90.6376 2.88001C98.1619 10.792 107.354 16.985 117.546 20.9108C118.191 21.1586 118.549 21.9289 117.999 22.4941C112.305 28.3424 105.484 32.9004 97.9214 35.9705C96.789 36.4309 96.2626 34.6049 97.3849 34.1501C104.64 31.2066 111.179 26.7782 116.638 21.1703C116.79 21.6975 116.94 22.2265 117.091 22.7536C106.576 18.7038 97.0873 12.4116 89.3153 4.23924C88.4745 3.35755 89.793 1.99223 90.6376 2.88001Z" fill="#295021"/>
<path d="M107.883 -3.20555C113.461 1.99701 120.022 5.73703 127.215 8.21735C133.668 10.4432 140.53 12.7738 147.449 11.8786C148.352 11.7612 148.622 12.9194 148.154 13.4896C143.701 18.9159 138.623 24.1292 133.358 28.7726C128.765 32.8207 123.347 35.8136 117.481 37.5571C116.318 37.9022 115.784 36.12 116.911 35.748C121.941 34.0823 126.876 32.1416 130.792 28.5696C136.386 23.4705 141.965 18.0533 146.795 12.1669C147.029 12.7045 147.265 13.2402 147.499 13.7779C140.255 14.7141 133.032 12.2387 126.286 9.89804C118.95 7.3535 112.247 3.46197 106.557 -1.8435C105.666 -2.67659 106.989 -4.0387 107.883 -3.20555Z" fill="#295021"/>
<path d="M76.5056 198.623L76.5061 198.622L76.5084 198.62C76.5084 198.62 76.5005 198.628 76.5113 198.617C76.522 198.605 76.5337 198.589 76.5445 198.577C78.3362 196.52 79.9044 194.175 81.4215 191.904C83.5525 188.712 85.7564 185.413 88.6738 182.738C94.5117 177.383 101.505 175.833 108.266 174.335C111.722 173.569 115.295 172.777 118.663 171.482C119.106 171.312 119.75 171.113 120.478 170.888C121.784 170.487 123.995 169.799 125.063 169.131C125.998 168.058 126.937 166.979 127.873 165.894C127.883 165.868 127.892 165.842 127.902 165.816C128.007 165.527 128.222 165.314 128.484 165.189C132.78 160.213 137.071 155.123 141.288 149.918C136.803 152.383 131.32 153.916 124.601 154.552C121.524 154.844 118.381 154.963 115.345 155.077C109.172 155.311 102.788 155.551 96.8492 157.282C96.4348 157.404 95.9928 157.284 95.7 156.968C95.4063 156.657 95.3145 156.207 95.4611 155.804C97.8015 149.373 104.132 145.866 110.416 142.827C119.873 138.249 129.163 134.275 138.856 135.887C141.541 136.335 144.206 136.999 146.782 137.644C147.937 137.933 149.096 138.215 150.255 138.484C156.203 130.619 161.872 122.501 167.022 114.109C164.799 116.614 162.425 119 159.613 120.786C154.813 123.835 149.299 126.029 143.221 127.304C132.087 129.642 120.387 128.751 110.296 127.73L110.291 127.731C109.676 127.658 109.212 127.111 109.275 126.488C109.327 125.968 109.722 125.567 110.212 125.483C110.868 125.099 112.895 123.008 113.886 121.986C114.835 121.006 115.389 120.439 115.721 120.175C117.879 118.461 120.191 116.87 122.593 115.452C127.502 112.554 132.812 110.331 138.377 108.851C143.971 107.36 149.682 106.653 155.358 106.748C156.699 106.769 157.967 106.833 159.196 106.894C163.471 107.106 167.16 107.289 171.562 105.577C171.722 105.515 171.888 105.503 172.051 105.513C174.547 101.024 176.876 96.4623 179.01 91.82C173.243 91.7391 167.537 90.5746 161.204 88.1043C155.218 85.7719 149.906 82.024 145.843 77.2706C143.225 74.208 139.104 68.0982 140.916 61.6137C141.009 61.2761 141.269 60.9877 141.594 60.8562C141.861 60.7465 142.636 60.943 143.712 61.3304C148.183 62.9436 157.853 67.8665 157.966 67.9324C163.092 70.8554 167.957 74.2723 172.428 78.0882C176.037 81.1629 178.646 84.6674 180.763 87.8773C189.251 68.1949 194.097 47.1404 192.748 24.55C192.712 23.9231 193.188 23.3855 193.815 23.3497C193.975 23.3383 194.128 23.3641 194.27 23.4139C194.683 23.5627 194.991 23.9485 195.02 24.415C196.807 54.3192 187.978 81.5088 174.186 106.369C176.571 104.175 179.231 101.907 182.372 100.502C185.294 99.1937 188.749 98.5499 193.243 98.4766C200.137 98.3659 206.998 99.5121 213.633 100.622C213.702 100.636 213.767 100.652 213.832 100.675C214.177 100.8 214.444 101.085 214.542 101.443C214.658 101.872 214.517 102.327 214.176 102.614C207.548 108.174 200.131 112.675 192.134 115.992C188.89 117.336 185.137 118.59 181.384 118.152C184.953 123.475 187.652 129.263 188.363 136.483C189.21 145.109 187.353 154.613 182.683 165.544C182.559 165.838 182.312 166.066 182.01 166.172C181.705 166.278 181.371 166.246 181.091 166.095C177.16 163.942 175.254 159.681 173.64 155.502C171.135 149.02 168.607 142.075 167.623 134.719C166.638 127.358 168.343 120.289 170.093 113.445C164.288 123.092 157.797 132.382 150.957 141.335C151.817 141.648 152.617 142.294 153.231 142.856C155.957 145.346 157.993 148.389 159.785 151.309C162.145 155.159 165.008 160.304 166.22 165.99C167.144 170.334 167.114 174.704 166.781 179.929C166.362 186.578 165.583 193.284 164.47 199.856C164.389 200.343 164.001 200.721 163.513 200.79C163.026 200.861 162.548 200.61 162.328 200.169L153.721 182.689C151.591 178.363 149.39 173.889 147.937 169.147C145.79 162.136 145.346 154.568 146.653 147.265L146.741 146.755C141.316 153.621 135.731 160.288 130.14 166.764C130.241 171.296 131.798 175.063 133.458 179.033C133.969 180.25 134.487 181.49 134.977 182.778C137.298 188.881 138.191 195.306 137.56 201.363C136.649 210.126 132.491 218.325 128.821 225.558C128.588 226.019 128.07 226.262 127.564 226.154C127.067 226.058 126.691 225.602 126.669 225.086C126.501 220.538 125.247 215.994 124.032 211.603C123.136 208.356 122.209 205.003 121.695 201.599C120.836 195.9 121.049 189.786 122.353 182.911C122.998 179.508 124.079 176.2 125.252 172.973C123.198 175.66 121.033 178.278 118.784 180.81C116.589 184.166 114.752 187.531 112.872 191.004C111.999 192.616 111.099 194.264 110.151 195.945C109.704 197.941 109.211 199.908 108.696 201.813C107.587 205.917 106.542 209.793 106.223 214.056C106.054 216.315 106.12 218.663 106.183 220.934C106.261 223.775 106.341 226.714 105.986 229.628C105.623 232.603 104.867 235.311 103.673 237.906C102.056 241.428 99.9037 244.981 97.0903 248.776C95.927 250.344 94.627 251.977 93.1157 253.762C92.8808 254.04 92.4614 254.442 91.9849 254.89C91.3766 255.463 90.1091 256.656 89.9632 257.102C89.8688 257.72 89.2927 258.129 88.6718 258.034C88.0402 257.923 87.6297 257.339 87.7222 256.72L87.7234 256.714C88.3846 252.376 88.3472 247.879 88.3095 243.531C88.2848 240.437 88.2572 237.237 88.4765 234.082C89.3858 221.049 92.9896 211.296 99.8232 203.384C100.657 202.416 101.535 201.473 102.413 200.532C104.85 197.916 107.152 195.444 108.61 192.411C108.834 191.944 109.344 191.711 109.841 191.803C110.182 191.178 110.54 190.537 110.873 189.921C111.201 189.316 111.525 188.716 111.854 188.119C110.396 189.518 108.929 190.8 107.334 191.971C104.536 194.023 101.706 195.469 98.6832 196.388C95.5616 197.338 92.5159 197.515 89.5709 197.688C88.3274 197.762 87.0718 197.836 85.7935 197.965C83.6603 198.182 78.9265 199.37 78.2723 200.068C77.8573 200.542 77.1418 200.597 76.6681 200.178C76.1978 199.781 76.1355 199.097 76.5056 198.623ZM162.028 85.9826C167.527 88.1335 172.505 89.2323 177.471 89.4875C169.682 86.8347 163.131 81.5883 156.802 76.4826C153.492 73.8119 150.07 71.0471 146.519 68.7039C146.126 68.4437 146.017 67.9166 146.276 67.524C146.497 67.1884 146.914 67.0612 147.277 67.1925C147.339 67.2145 147.4 67.2443 147.458 67.2837C151.076 69.6705 154.532 72.4609 157.873 75.1569C164.084 80.1692 170.518 85.3164 178.022 87.8775C176.133 85.1438 173.879 82.3084 170.948 79.8075C166.584 76.0867 161.838 72.7511 156.833 69.8959C155.54 69.1588 146.046 64.6638 142.858 63.3618C142.068 68.6462 145.824 73.7467 147.568 75.7888C151.39 80.2587 156.39 83.7848 162.028 85.9826ZM103.945 213.887C104.262 209.639 105.29 205.678 106.324 201.846C103.016 207.854 100.542 213.774 99.0312 219.487C98.3377 222.116 98.2183 224.931 98.1052 227.655C97.9223 232.023 97.7332 236.539 95.2436 240.703C95.0006 241.11 94.4663 241.239 94.0736 240.997C93.6684 240.757 93.536 240.233 93.7786 239.829C96.0474 236.035 96.219 231.928 96.4014 227.58C96.518 224.768 96.6397 221.859 97.3835 219.05C98.8802 213.381 101.289 207.526 104.506 201.587C104.359 201.746 104.217 201.916 104.071 202.073C103.212 202.994 102.355 203.913 101.538 204.861C95.0415 212.383 91.6104 221.716 90.738 234.233C90.5236 237.303 90.5514 240.456 90.5774 243.507C90.6045 246.709 90.6313 249.986 90.3857 253.26C90.3956 253.252 90.4059 253.242 90.4159 253.234C90.8156 252.857 91.1722 252.527 91.3706 252.294C92.8495 250.544 94.1203 248.951 95.2551 247.42C97.9725 243.754 100.047 240.332 101.599 236.956C102.692 234.576 103.385 232.088 103.72 229.347C104.056 226.602 103.976 223.75 103.901 220.992C103.833 218.664 103.768 216.255 103.945 213.887ZM131.351 179.905C130.679 178.296 130.03 176.717 129.469 175.106C128.986 181.403 129.242 186.897 130.277 192.41C131.402 198.408 132.295 204.726 129.864 210.242C129.672 210.674 129.159 210.857 128.74 210.679C128.309 210.49 128.113 209.986 128.304 209.556C130.542 204.479 129.722 198.697 128.603 192.724C127.376 186.188 127.209 179.694 128.054 171.936C126.666 175.648 125.318 179.459 124.583 183.333C123.328 189.951 123.117 195.816 123.941 201.259C124.434 204.528 125.341 207.818 126.221 210.997C127.122 214.257 128.044 217.597 128.556 221.012C131.603 214.859 134.566 208.112 135.294 201.125C135.888 195.418 135.043 189.353 132.846 183.583C132.361 182.315 131.852 181.099 131.351 179.905ZM151.692 144.528C151.41 144.272 151.185 144.093 150.98 143.942C151.512 145.98 151.967 148.025 152.38 150.02C153.098 153.479 153.839 157.06 155.124 160.453L155.946 162.582C157.819 167.393 159.756 172.366 159.554 177.712C159.538 178.183 159.14 178.549 158.669 178.532C158.201 178.513 157.832 178.118 157.848 177.649C158.037 172.655 156.164 167.85 154.355 163.2L153.528 161.058C152.194 157.535 151.44 153.891 150.708 150.364C150.325 148.516 149.904 146.629 149.426 144.752C149.267 145.425 149.132 146.217 149.031 146.809L148.882 147.664C147.639 154.613 148.061 161.811 150.104 168.479C151.503 173.047 153.664 177.437 155.755 181.681L162.783 195.952C163.587 190.593 164.165 185.168 164.507 179.78C164.826 174.742 164.858 170.547 163.989 166.456C162.85 161.11 160.105 156.185 157.841 152.492C156.136 149.714 154.21 146.827 151.692 144.528ZM174.313 112.531C176.75 123.051 178.399 133.793 179.127 144.548C179.159 145.018 178.804 145.423 178.334 145.455C177.863 145.485 177.456 145.132 177.426 144.662C176.7 133.939 175.049 123.227 172.609 112.739C172.568 112.897 172.53 113.053 172.488 113.211C170.647 120.408 168.903 127.207 169.869 134.416C170.821 141.526 173.298 148.326 175.753 154.678C177.048 158.027 178.528 161.424 181.107 163.399C185.238 153.353 186.869 144.608 186.091 136.697C185.126 126.848 180.107 119.662 174.313 112.531ZM174.836 108.851C182.462 109.627 190.193 108.619 197.372 105.881C197.572 105.807 197.782 105.809 197.967 105.876C198.191 105.957 198.382 106.133 198.474 106.374C198.641 106.814 198.422 107.305 197.981 107.473C190.88 110.182 183.254 111.24 175.702 110.627C176.814 111.987 177.9 113.352 178.943 114.731C179.363 114.776 179.741 115.045 179.895 115.464C179.935 115.495 180.077 115.6 180.471 115.687C184.065 116.55 187.939 115.26 191.257 113.884C198.27 110.976 204.824 107.134 210.769 102.442C205.015 101.496 199.117 100.646 193.277 100.742C189.1 100.808 185.93 101.387 183.298 102.564C180.095 104 177.417 106.441 174.836 108.851ZM166.672 111.047C156.491 116 145.318 119.098 134.058 120.055C133.594 120.097 133.176 119.749 133.136 119.278C133.097 118.81 133.444 118.396 133.913 118.356C145.291 117.39 156.575 114.184 166.806 109.066C164.179 109.386 161.67 109.287 159.081 109.157C157.878 109.097 156.632 109.036 155.318 109.013C149.853 108.922 144.349 109.604 138.962 111.038C133.597 112.468 128.479 114.611 123.749 117.405C121.437 118.769 119.214 120.299 117.137 121.951C116.904 122.135 116.201 122.863 115.521 123.567C114.648 124.466 113.943 125.183 113.359 125.749C122.598 126.613 132.952 127.14 142.752 125.085C148.561 123.864 153.823 121.775 158.391 118.87C161.522 116.876 164.16 113.991 166.672 111.047ZM142.597 146.456C143.794 145.618 144.827 144.6 145.823 143.5C144.03 144.057 142.122 144.352 140.233 144.531C137.945 144.75 135.632 144.896 133.314 145.041C125.697 145.521 117.819 146.014 110.97 149.275C110.546 149.478 110.036 149.296 109.833 148.872C109.631 148.449 109.812 147.939 110.236 147.736C117.381 144.332 125.424 143.829 133.205 143.34C135.504 143.194 137.8 143.051 140.07 142.834C142.867 142.567 145.998 142.095 148.396 140.382C147.673 140.208 146.952 140.029 146.23 139.847C143.696 139.215 141.075 138.562 138.481 138.129C129.449 136.625 120.52 140.459 111.408 144.869C106.313 147.336 101.194 150.106 98.5939 154.482C104.076 153.227 109.749 153.013 115.256 152.806C118.261 152.693 121.369 152.577 124.384 152.289C132.063 151.563 138.021 149.652 142.597 146.456ZM80.9507 196.624C83.0268 196.077 85.103 195.75 85.5512 195.705C86.8608 195.572 88.1496 195.496 89.4263 195.419C92.367 195.247 95.1472 195.082 98.0102 194.213C100.784 193.369 103.389 192.036 105.978 190.137C109.172 187.793 111.889 184.955 115.11 181.485C115.764 180.779 116.389 180.045 117.03 179.324C117.769 178.201 118.54 177.077 119.379 175.951C117.495 177.084 115.477 178.022 113.493 178.944L112.622 179.351C105.509 182.68 98.5796 186.551 92.0242 190.859C91.63 191.12 91.1046 191.007 90.8426 190.617C90.5838 190.222 90.6928 189.694 91.0865 189.436C97.7088 185.084 104.71 181.172 111.896 177.808L112.771 177.401C115.335 176.209 117.948 174.979 120.195 173.357C119.923 173.443 119.681 173.526 119.482 173.602C115.959 174.957 112.299 175.77 108.762 176.554C101.996 178.053 95.6057 179.47 90.2163 184.412C87.5007 186.903 85.4679 189.946 83.3164 193.165C82.5483 194.311 81.768 195.476 80.9507 196.624Z" fill="#95BC8F"/>
<path d="M65.0473 43.7633C74.2165 48.971 82.8782 54.1613 82.36 54.7103C76.3822 61.0641 71.1512 68.2802 66.314 75.5866C61.8641 82.3085 58.8568 90.9686 50.1064 93.0907C48.8599 93.3936 47.4903 93.4741 46.3392 92.9055C44.792 92.1409 43.9753 90.3257 43.969 88.6016C43.9609 86.8765 44.6296 85.2218 45.4009 83.6789C47.2946 79.8928 49.8803 76.4526 52.9937 73.5852C48.2145 77.371 43.4277 81.1613 38.3576 84.5494C36.1145 86.0495 33.7359 87.4994 31.0713 87.9247C28.7817 88.2905 25.9612 87.5057 25.2657 85.2931C24.6891 83.4659 25.8116 81.5686 26.9565 80.0342C29.8485 76.1558 33.2327 72.6426 36.9996 69.6081C30.6093 74.4214 22.8077 77.3359 14.8256 77.8943C11.7784 78.1063 8.54738 77.9381 5.95 76.3293C3.29161 74.6833 1.24257 71.5905 2.7165 68.3771C4.04955 65.4678 8.70579 63.7105 11.4736 62.5255C19.2858 59.1795 28.0085 58.2073 36.4353 58.8739C32.6364 57.2585 29.036 55.1703 25.7466 52.6732C23.6874 51.1113 21.5458 48.6524 22.5045 46.253C23.0803 44.8104 24.6716 43.9738 26.2204 43.8581C27.7692 43.7424 29.2971 44.2126 30.7676 44.7164C35.7473 46.4176 40.5885 48.5285 45.2236 51.0219C42.7451 49.0664 40.2321 47.0767 38.4 44.5063C36.5678 41.9359 35.4768 38.663 36.1982 35.5904C36.4347 34.5857 36.8774 33.5991 37.6385 32.9024C39.4953 31.1984 42.4597 31.7547 44.7742 32.753C46.5329 33.513 56.035 38.6458 65.0473 43.7633Z" fill="#6F9969"/>
</g>
<defs>
<clipPath id="clip0_98_240">
<rect width="160" height="253" fill="white"/>
</clipPath>
</defs>
</svg>
